# xmcd
#
# Track frame offsets:
#  182
#  12760
#  25420
#  39367
#  52995
#  64515
#  75852
#  87772
#  102447
#  114880
#  125900
#  138840
#  152287
#  164885
#  178275
#  191592
#  205317
#  216892
#  227717
#
# Disc length: 3188 seconds
#
# Revision: 0
# Processed by: cddbd v1.5.1PL2 Copyright (c) Steve Scherf et al.
# Submitted via: Collectorz.com_Music_Collector 6.9
#
DISCID=f70c7213
DTITLE=Charles Brown - Snuff Dippin' Mama
DYEAR=1995
DGENRE=Blues
TTITLE0=Snuff Dippin' Mama
TTITLE1=Lonesome Blues
TTITLE2=C.O.D.
TTITLE3=B and O Blues [Alternate Take][#]
TTITLE4=I Miss You
TTITLE5=Better Watch What You Do
TTITLE6=Now That You're Gone
TTITLE7=My Silent Love
TTITLE8=Sunny Road
TTITLE9=Peek-A-Boo
TTITLE10=B-Sharp You'll See
TTITLE11=New Orleans Blues
TTITLE12=So There
TTITLE13=Googie's Boogie
TTITLE14=Where Can I Find My Baby
TTITLE15=Changeable Woman Blues
TTITLE16=Way Over There by the Cherry Tree
TTITLE17=Juke Bok Lil
TTITLE18=Moonries
EXTD=
EXTT0=
EXTT1=
EXTT2=
EXTT3=
EXTT4=
EXTT5=
EXTT6=
EXTT7=
EXTT8=
EXTT9=
EXTT10=
EXTT11=
EXTT12=
EXTT13=
EXTT14=
EXTT15=
EXTT16=
EXTT17=
EXTT18=
PLAYORDER=
